<?xml version="1.0" encoding="iso-8859-1"?>
<!-- Generator: Adobe Illustrator 19.0.0, SVG Export Plug-In . SVG Version: 6.00 Build 0)  -->
<svg version="1.1" id="Capa_1" xmlns="http://www.w3.org/2000/svg" xmlns:xlink="http://www.w3.org/1999/xlink" x="0px" y="0px"
	 viewBox="0 0 512.001 512.001" style="enable-background:new 0 0 512.001 512.001;" xml:space="preserve">
<path style="fill:#F1EBE0;" d="M499.636,473.5H12.535c-6.828,0-12.364-5.535-12.364-12.364V50.864
	c0-6.828,5.535-12.364,12.364-12.364h487.101c6.828,0,12.364,5.535,12.364,12.364v410.272C512,467.965,506.465,473.5,499.636,473.5z
	"/>
<path style="fill:#E8E1D7;" d="M499.558,38.5h-30.895c6.824,0,12.356,5.537,12.356,12.368v410.265
	c0,6.83-5.532,12.368-12.356,12.368h30.895c6.824,0,12.356-5.537,12.356-12.368V50.868C511.914,44.037,506.382,38.5,499.558,38.5z"
	/>
<path style="fill:#7A666C;" d="M512,120.964H0.172v-70.1c0-6.828,5.535-12.364,12.364-12.364h487.101
	c6.828,0,12.364,5.535,12.364,12.364v70.1H512z"/>
<path style="fill:#6A545A;" d="M499.642,38.5h-30.979c6.825,0,12.358,5.538,12.358,12.37v70.095H512V50.87
	C512,44.038,506.467,38.5,499.642,38.5z"/>
<path style="fill:#FF993B;" d="M186.572,120.964H0.172v-70.1c0-6.828,5.535-12.364,12.364-12.364h174.036L186.572,120.964
	L186.572,120.964z"/>
<rect y="120.96" style="fill:#00E7FF;" width="511.83" height="30.924"/>
<rect x="481.02" y="120.96" style="fill:#00CAE1;" width="30.895" height="30.924"/>
<path style="fill:#00E7FF;" d="M499.636,473.5H12.535c-6.828,0-12.364-5.535-12.364-12.364v-18.56H512v18.56
	C512,467.965,506.465,473.5,499.636,473.5z"/>
<path style="fill:#00CAE1;" d="M481.019,442.4v18.537c0,6.825-5.533,12.358-12.358,12.358h30.981
	c6.825,0,12.358-5.533,12.358-12.358V442.4H481.019z"/>
<circle style="fill:#0087D5;" cx="40.85" cy="79.898" r="15.448"/>
<circle style="fill:#FFBD2A;" cx="94.4" cy="79.898" r="15.448"/>
<circle style="fill:#F15D5F;" cx="146.92" cy="79.898" r="15.448"/>
<g>
	<path style="fill:#FF5A51;" d="M481.105,442.576H378.121v-99.081c0-2.209,1.791-4,4-4h94.984c2.209,0,4,1.791,4,4V442.576z"/>
	<path style="fill:#FF5A51;" d="M461.023,191.412h-61.79c-4.143,0-7.5-3.358-7.5-7.5s3.357-7.5,7.5-7.5h61.79
		c4.143,0,7.5,3.358,7.5,7.5S465.165,191.412,461.023,191.412z"/>
	<path style="fill:#FF5A51;" d="M461.023,220.247h-61.79c-4.143,0-7.5-3.358-7.5-7.5s3.357-7.5,7.5-7.5h61.79
		c4.143,0,7.5,3.358,7.5,7.5S465.165,220.247,461.023,220.247z"/>
</g>
<path style="fill:#FFD681;" d="M142.923,224.045H47.94c-2.209,0-4-1.791-4-4v-99.081h102.984v99.081
	C146.923,222.254,145.132,224.045,142.923,224.045z"/>
<g>
	<path style="fill:#444455;" d="M276.683,233.371H235.49v-27.833c0-11.375,9.221-20.597,20.597-20.597l0,0
		c11.375,0,20.597,9.221,20.597,20.597v27.833H276.683z"/>
	<path style="fill:#444455;" d="M256.086,409.446L256.086,409.446c-11.375,0-20.597-9.221-20.597-20.597v-27.833h41.193v27.833
		C276.683,400.224,267.461,409.446,256.086,409.446z"/>
	<path style="fill:#444455;" d="M315.779,266.628L286.651,237.5l19.681-19.681c8.043-8.044,21.085-8.044,29.128,0l0,0
		c8.044,8.044,8.044,21.085,0,29.128L315.779,266.628z"/>
	<path style="fill:#444455;" d="M176.712,376.568L176.712,376.568c-8.044-8.044-8.044-21.085,0-29.128l19.681-19.681l29.128,29.128
		l-19.681,19.681C197.796,384.611,184.755,384.611,176.712,376.568z"/>
	<path style="fill:#444455;" d="M319.908,317.79v-41.193h27.833c11.375,0,20.597,9.221,20.597,20.597l0,0
		c0,11.375-9.221,20.597-20.597,20.597h-27.833V317.79z"/>
	<path style="fill:#444455;" d="M143.834,297.193L143.834,297.193c0-11.375,9.221-20.597,20.597-20.597h27.833v41.193H164.43
		C153.055,317.79,143.834,308.569,143.834,297.193z"/>
	<path style="fill:#444455;" d="M286.651,356.887l29.128-29.128l19.681,19.681c8.044,8.044,8.044,21.085,0,29.128l0,0
		c-8.044,8.044-21.085,8.044-29.128,0L286.651,356.887z"/>
	<path style="fill:#444455;" d="M176.712,217.819L176.712,217.819c8.044-8.044,21.085-8.044,29.128,0l19.681,19.681l-29.128,29.128
		l-19.681-19.681C168.668,238.904,168.668,225.863,176.712,217.819z"/>
</g>
<path style="fill:#5B5B75;" d="M307.063,246.217c-28.156-28.145-73.798-28.145-101.954,0c-28.145,28.156-28.145,73.798,0,101.954
	c28.156,28.145,73.798,28.145,101.954,0C335.208,320.015,335.208,274.372,307.063,246.217z M279.391,320.499
	c-12.873,12.863-33.737,12.863-46.61,0c-12.863-12.873-12.863-33.737,0-46.61c12.873-12.863,33.737-12.863,46.61,0
	C292.254,286.761,292.254,307.626,279.391,320.499z"/>
<g>
</g>
<g>
</g>
<g>
</g>
<g>
</g>
<g>
</g>
<g>
</g>
<g>
</g>
<g>
</g>
<g>
</g>
<g>
</g>
<g>
</g>
<g>
</g>
<g>
</g>
<g>
</g>
<g>
</g>
</svg>
